<svg width="64" height="64" viewBox="0 0 64 64" fill="none" xmlns="http://www.w3.org/2000/svg">
															<path d="M33.0821 46.3548H29.3519C29.0086 46.3548 28.7302 46.0765 28.7302 45.7331V34.5425H25.6217C25.2783 34.5425 25 34.2642 25 33.9208V30.1906C25 29.8473 25.2783 29.5689 25.6217 29.5689H28.7302V22.7302C28.7302 20.6701 30.4003 19 32.4604 19H38.0557C38.3991 19 38.6774 19.2783 38.6774 19.6217V23.3519C38.6774 23.6953 38.3991 23.9736 38.0557 23.9736H34.9472C34.2605 23.9736 33.7038 24.5303 33.7038 25.217V29.5689H38.5029C38.9073 29.5689 39.2041 29.949 39.106 30.3414L38.1734 34.0716C38.1043 34.3484 37.8556 34.5425 37.5703 34.5425H33.7038V45.7331C33.7038 46.0765 33.4255 46.3548 33.0821 46.3548Z" fill="white"></path>
														</svg>