<svg width="64" height="64" viewBox="0 0 64 64" fill="none" xmlns="http://www.w3.org/2000/svg">
																<path fill-rule="evenodd" clip-rule="evenodd" d="M18 25.6594C18 21.4292 21.4292 18 25.6594 18H38.7897C43.0198 18 46.449 21.4292 46.449 25.6594V38.7897C46.449 43.0198 43.0198 46.449 38.7897 46.449H25.6594C21.4292 46.449 18 43.0198 18 38.7897V25.6594ZM27.7355 32.6594C27.7355 35.3787 29.94 37.5832 32.6594 37.5832C35.3787 37.5832 37.5832 35.3787 37.5832 32.6594C37.5832 29.94 35.3787 27.7355 32.6594 27.7355C29.94 27.7355 27.7355 29.94 27.7355 32.6594ZM32.6594 25C28.4292 25 25 28.4292 25 32.6594C25 36.8895 28.4292 40.3187 32.6594 40.3187C36.8895 40.3187 40.3187 36.8895 40.3187 32.6594C40.3187 28.4292 36.8895 25 32.6594 25ZM40.6413 22C39.7348 22 39 22.7348 39 23.6413C39 24.5477 39.7348 25.2826 40.6413 25.2826C41.5477 25.2826 42.2826 24.5477 42.2826 23.6413C42.2826 22.7348 41.5477 22 40.6413 22Z" fill="white"></path>
														</svg>