<svg width="40" height="40" viewBox="0 0 40 40" fill="none" xmlns="http://www.w3.org/2000/svg">
                                                                    <path fill-rule="evenodd" clip-rule="evenodd" d="M12.8613 11.5H27.1387C27.8905 11.5 28.5 12.1095 28.5 12.8613V27.1387C28.5 27.8905 27.8905 28.5 27.1387 28.5H12.8613C12.1095 28.5 11.5 27.8905 11.5 27.1387V12.8613C11.5 12.1095 12.1095 11.5 12.8613 11.5ZM22.7624 15.1531H17.2375C17.1984 15.1545 17.1613 15.1706 17.1337 15.1982C17.1061 15.2258 17.0899 15.263 17.0886 15.302V15.3339V15.3711V15.403V15.4456V15.4721V15.5041V15.536V15.5732V15.6051V15.637V15.6742V15.7061V15.7431V15.7433V15.7752V20.8269V20.8641V20.896V20.9279V20.9758V20.997V21.0289V21.0662V21.0981V21.1459V21.1459V21.1991V21.231V21.2682V21.3001C17.0886 21.3396 17.1043 21.3775 17.1322 21.4054C17.1601 21.4333 17.198 21.449 17.2375 21.449H19.4838C19.1705 22.3928 18.5692 23.2199 17.7586 23.81C17.7407 23.8218 17.7257 23.8375 17.7146 23.8559C17.7036 23.8743 17.6968 23.895 17.6948 23.9163C17.6948 23.9253 17.6954 23.9342 17.6968 23.9429C17.6959 23.9482 17.6952 23.9535 17.6948 23.9588C17.6948 23.9662 17.6952 23.9736 17.6962 23.9808C17.6956 23.9841 17.6952 23.9874 17.6948 23.9908C17.6948 23.997 17.6951 24.0033 17.6958 24.0095L17.6948 24.0174C17.6944 24.0284 17.6953 24.0395 17.6972 24.0503C17.6962 24.0552 17.6954 24.0602 17.6948 24.0652C17.6947 24.0721 17.6949 24.0789 17.6956 24.0857L17.6948 24.0918C17.6948 24.098 17.6951 24.1043 17.6958 24.1105L17.6948 24.1184C17.6948 24.1273 17.6955 24.1362 17.6968 24.145C17.6959 24.1503 17.6952 24.1556 17.6948 24.1609C17.6948 24.1683 17.6952 24.1756 17.6962 24.1829C17.6956 24.1862 17.6952 24.1895 17.6948 24.1929C17.6948 24.2021 17.6955 24.2114 17.697 24.2205C17.696 24.2254 17.6953 24.2304 17.6948 24.2354C17.6946 24.2406 17.6947 24.2458 17.6951 24.251C17.6955 24.2589 17.6965 24.2666 17.6981 24.2743C17.6966 24.2807 17.6955 24.2873 17.6948 24.2939C17.6948 24.3001 17.6951 24.3064 17.6958 24.3126L17.6948 24.3205C17.6948 24.3289 17.6954 24.3374 17.6966 24.3457C17.6959 24.3497 17.6953 24.3537 17.6948 24.3577C17.6946 24.3666 17.6951 24.3755 17.6963 24.3843C17.6957 24.3878 17.6952 24.3913 17.6948 24.3949C17.6947 24.4166 17.6989 24.4381 17.7071 24.4581C17.7153 24.4782 17.7274 24.4965 17.7427 24.5119L19.3379 26.1071C19.3646 26.1341 19.401 26.1494 19.439 26.1497C19.4693 26.1491 19.4988 26.1398 19.524 26.1231C20.5628 25.4288 21.4144 24.4892 22.0034 23.3873C22.5595 22.3469 22.8653 21.1922 22.8977 20.0149C22.907 19.8606 22.9115 19.7058 22.9113 19.5507V15.52C22.9135 15.4992 22.9113 15.4781 22.9049 15.4581L22.9038 15.455C22.9047 15.4411 22.9037 15.427 22.9006 15.4133V15.403L22.9006 15.4021V15.3977C22.9046 15.3803 22.9053 15.3623 22.9027 15.3447C22.9036 15.332 22.9029 15.3193 22.9006 15.3068V15.2967C22.8994 15.2599 22.8846 15.2249 22.8591 15.1984C22.8335 15.1718 22.7991 15.1557 22.7624 15.1531Z" fill="white"></path>
                                                                </svg>