<svg width="64" height="64" viewBox="0 0 64 64" fill="none" xmlns="http://www.w3.org/2000/svg">
															<path path="" fill-rule="evenodd" clip-rule="evenodd" d="M20.9009 21.0413C17.5496 21.3821 15 24.2041 15 27.5727V36.7294C15 39.9676 17.4508 42.6803 20.6724 43.0079C27.633 43.7157 34.6469 43.7273 41.6098 43.0424L41.9485 43.0091C45.2836 42.6811 47.8258 39.8765 47.8258 36.5254V27.5924C47.8258 24.2155 45.264 21.3894 41.9033 21.0588L39.8533 20.8572C34.0584 20.2872 28.2212 20.2968 22.4283 20.8859L20.9009 21.0413ZM35.7177 32.2113C36.2876 31.8823 36.2876 31.0597 35.7177 30.7307L30.0758 27.4733C29.5059 27.1443 28.7935 27.5556 28.7935 28.2137V34.7284C28.7935 35.3865 29.5059 35.7977 30.0758 35.4687L35.7177 32.2113Z" fill="white"></path>
														</svg>